<?xml version="1.0" encoding="UTF-8"?>
<svg version="1.1" xmlns="http://www.w3.org/2000/svg" width="1200" height="1200">
<path d="M0 0 C0.33 2.97 0.66 5.94 1 9 C2.05864258 8.85925049 3.11728516 8.71850098 4.20800781 8.57348633 C16.08298941 7.07710833 27.7889629 6.63869636 39.75 6.6875 C40.68376465 6.68932281 41.6175293 6.69114563 42.57958984 6.69302368 C68.48700897 6.77760742 93.6440467 9.54987351 119 15 C120.50240234 15.32242676 120.50240234 15.32242676 122.03515625 15.65136719 C147.2699027 21.21198819 171.62323869 30.0483363 195 41 C195.85883789 41.40186523 196.71767578 41.80373047 197.60253906 42.21777344 C208.95205588 47.58748384 219.759401 53.65907145 230.44921875 60.23828125 C234.89047706 62.96611191 239.42316846 65.50769295 244 68 C245.32 66.02 246.64 64.04 248 62 C252.92329826 63.58724095 256.57566947 66.45458353 260.625 69.5625 C261.33575684 70.10261719 262.04651367 70.64273438 262.77880859 71.19921875 C268.63095354 75.6680813 274.3617555 80.26387462 280 85 C281.00546875 85.81984375 282.0109375 86.6396875 283.046875 87.484375 C290.74599033 93.83876213 297.87670339 100.69534214 304.9375 107.75 C305.82550293 108.63719727 306.71350586 109.52439453 307.62841797 110.43847656 C312.61625439 115.46868653 317.42995947 120.58720203 322 126 C322.51071045 126.60392578 323.0214209 127.20785156 323.54760742 127.83007812 C331.19959861 136.96780946 338.3247376 146.42001288 345.22265625 156.13671875 C347.38471845 159.17535218 349.63004605 162.11854519 352 165 C353.36125 163.7315625 353.36125 163.7315625 354.75 162.4375 C368.61561054 150.67946226 388.00502799 144.45120742 406 143 C406.70898438 142.93554688 407.41796875 142.87109375 408.1484375 142.8046875 C413.74112861 142.52598196 418.84243881 143.4519132 424.25 144.75 C424.92353516 144.90686279 425.59707031 145.06372559 426.29101562 145.2253418 C434.54551709 147.3532641 440.20238094 152.10358362 445 159 C446.33992856 162.31370293 446.9404961 165.62897513 447.52197266 169.14697266 C447.71370371 170.17353281 447.90543476 171.20009296 448.10297585 172.257761 C448.76243303 175.83412806 449.38080809 179.41645346 450 183 C450.3700671 185.06668955 450.74435222 187.13258613 451.11908734 189.198434 C452.85959487 198.79670189 454.53300769 208.40626697 456.19391584 218.01858091 C456.65336661 220.67695727 457.11376599 223.33516779 457.57442093 225.99333572 C459.02151982 234.34550018 460.4652654 242.69823369 461.90405023 251.05183446 C463.55483971 260.6361216 465.21714508 270.21831956 466.88913476 279.79893053 C468.19026998 287.25862836 469.48122409 294.72004372 470.76451743 302.18283141 C471.52766633 306.61946992 472.2950084 311.05528063 473.07307053 315.48933029 C473.80214135 319.64578516 474.51849327 323.80423801 475.22533417 327.96452904 C475.48559527 329.4834024 475.75031689 331.00151974 476.0199852 332.51875114 C478.36352749 345.73018287 479.02478288 358.07918415 471.1796875 369.6953125 C469.5083818 371.85380043 467.80199804 373.94997414 466 376 C468.01631078 377.51677433 470.0358892 379.02603991 472.078125 380.5078125 C485.74511161 390.68430972 493.38094656 403.0634544 496 420 C497.21450712 430.66067359 493.56634438 439.72069622 487 448 C478.69541796 458.20166605 466.43176095 464.28848876 454 468 C453.06929687 468.28617188 452.13859375 468.57234375 451.1796875 468.8671875 C436.95927795 472.84890217 421.76568752 473.75351863 408.390625 466.60546875 C406.4034437 465.18978884 404.71027771 463.73625661 403 462 C402.50113281 461.51402344 402.00226562 461.02804687 401.48828125 460.52734375 C397.20196718 455.92170542 396 451.16407233 396 445 C395.34 445 394.68 445 394 445 C393.88527344 446.10859375 393.77054688 447.2171875 393.65234375 448.359375 C390.3575802 474.42055499 379.33492496 500.51340723 368 524 C367.66790527 524.69448242 367.33581055 525.38896484 366.99365234 526.10449219 C352.55508693 556.15910921 334.31480026 584.17572389 312 609 C311.29375488 609.79083984 311.29375488 609.79083984 310.57324219 610.59765625 C302.07278832 620.08274117 293.05989747 629.05257261 284 638 C284.72662842 637.92998779 285.45325684 637.85997559 286.2019043 637.7878418 C312.41817749 635.32127454 336.18997747 640.25981886 356.75 657.1875 C373.07049119 671.27834894 384.29543757 692.0611353 385.90625 713.7265625 C385.9371875 714.47679687 385.968125 715.22703125 386 716 C386.0515625 716.93585937 386.103125 717.87171875 386.15625 718.8359375 C386.87564459 743.11550487 377.92923534 765.03297588 361.390625 782.69921875 C357.96848753 785.99274648 354.28449209 788.90724549 350.55859375 791.84765625 C348.24127518 793.79703417 346.36373859 795.73741671 344.4375 798.0625 C334.24230755 810.1767875 319.14514815 817.98103611 304 822 C303.18015625 822.22429688 302.3603125 822.44859375 301.515625 822.6796875 C280.78721303 827.37898587 258.22085292 823.50577075 239.8125 813.21875 C218.12536597 799.43838358 204.78662732 779.89521533 199 755 C198.45182665 752.16777104 198.11606029 749.83380544 198 747 C197.9484375 745.85273437 197.896875 744.70546875 197.84375 743.5234375 C197.23366051 723.2266172 202.52233868 705.7896368 214 689 C214.33 688.34 214.66 687.68 215 687 C214.35901367 687.33620361 213.71802734 687.67240723 213.05761719 688.01879883 C155.5075539 718 155.5075539 718 135 718 C135.33 718.9075 135.66 719.815 136 720.75 C137 724 137 724 137 728 C124.13515514 731.15031657 111.26851004 734.13905161 98.1875 736.25 C96.81670288 736.47574707 96.81670288 736.47574707 95.41821289 736.70605469 C77.12843185 739.53183459 58.92285694 740.37665475 40.4375 740.3125 C38.7941568 740.30976578 38.7941568 740.30976578 37.11761475 740.30697632 C20.22556068 740.25976947 3.71232782 739.64317015 -13 737 C-14.11246094 736.83371094 -15.22492188 736.66742187 -16.37109375 736.49609375 C-53.92990254 730.79256261 -89.57358115 719.15633866 -123.74609375 702.71875 C-125.33052611 701.95791033 -126.91516117 701.19749263 -128.5 700.4375 C-129.27585449 700.06431641 -130.05170898 699.69113281 -130.85107422 699.30664062 C-136.54157787 696.60350397 -142.31849228 694.22350712 -148.1875 691.9375 C-157.08673505 688.4567163 -165.56345893 684.47820278 -174 680 C-174.69770508 679.63712891 -175.39541016 679.27425781 -176.11425781 678.90039062 C-193.85459669 669.64386895 -210.05235559 658.28901542 -225 645 C-225.58483154 644.49911865 -226.16966309 643.9982373 -226.7722168 643.48217773 C-240.90449476 631.33555854 -253.90876563 617.96914784 -265 603 C-266.64219261 600.97790578 -268.3168163 598.98840892 -270 597 C-270.77601563 597.25394531 -271.55203125 597.50789062 -272.3515625 597.76953125 C-275.88773253 598.89621072 -279.43760102 599.95925726 -283 601 C-284.55267578 601.46212891 -284.55267578 601.46212891 -286.13671875 601.93359375 C-312.30738877 608.66135517 -339.70875822 602.57767147 -362.71606445 589.28491211 C-395.56804098 569.59363922 -414.38975495 537.46321794 -423.66088867 501.04711914 C-425.86175078 492.03528654 -427.57984666 483.2815692 -428 474 C-428.03706055 473.2049707 -428.07412109 472.40994141 -428.11230469 471.59082031 C-429.65908305 431.57367313 -417.49391966 391.991754 -392 361 C-391.17757812 359.99324219 -390.35515625 358.98648437 -389.5078125 357.94921875 C-372.87781246 338.67477608 -349.17559929 325.0479807 -324 321 C-322.33342367 320.98264776 -320.66654746 320.98006648 -319 321 C-318.91548584 320.35901367 -318.83097168 319.71802734 -318.74389648 319.05761719 C-314.04497513 284.26036592 -304.63376305 251.02355585 -289.88867188 219.13696289 C-289.04274777 217.10279428 -288.47078193 215.14870485 -288 213 C-290.31 211.68 -292.62 210.36 -295 209 C-288.90412826 195.39204389 -281.95094541 182.61224107 -274 170 C-273.32324219 168.92492187 -272.64648438 167.84984375 -271.94921875 166.7421875 C-260.7862776 149.57946427 -248.06658772 133.62804943 -234.2890625 118.51171875 C-232.68794881 116.75486533 -231.1004635 114.98553849 -229.5234375 113.20703125 C-175.87924469 53.3122614 -97.82467788 14.69518696 -19.0625 2.0625 C-18.389841 1.95459137 -17.71718201 1.84668274 -17.0241394 1.73550415 C-5.23284639 -0.13156386 -5.23284639 -0.13156386 0 0 Z M-322 444 C-329.02994155 456.3093443 -332.54840897 470.41271647 -328.75 484.375 C-327.00254552 489.45404995 -325.24903214 493.87548393 -320.25 496.375 C-319.5075 496.58125 -318.765 496.7875 -318 497 C-318.20496094 496.39671875 -318.40992188 495.7934375 -318.62109375 495.171875 C-318.89050781 494.37265625 -319.15992188 493.5734375 -319.4375 492.75 C-319.70433594 491.96109375 -319.97117187 491.1721875 -320.24609375 490.359375 C-322.14239607 484.42483303 -322.666096 479.45622898 -321 473.3125 C-318.45768679 463.93659314 -320.13897146 453.53281602 -321 444 C-321.33 444 -321.66 444 -322 444 Z " fill="#CDFDFA" transform="translate(560,230)"/>
<path d="M0 0 C0.33 2.97 0.66 5.94 1 9 C2.05864258 8.85925049 3.11728516 8.71850098 4.20800781 8.57348633 C16.08298941 7.07710833 27.7889629 6.63869636 39.75 6.6875 C40.68376465 6.68932281 41.6175293 6.69114563 42.57958984 6.69302368 C68.48700897 6.77760742 93.6440467 9.54987351 119 15 C120.50240234 15.32242676 120.50240234 15.32242676 122.03515625 15.65136719 C147.2699027 21.21198819 171.62323869 30.0483363 195 41 C195.85883789 41.40186523 196.71767578 41.80373047 197.60253906 42.21777344 C208.95205588 47.58748384 219.759401 53.65907145 230.44921875 60.23828125 C234.89047706 62.96611191 239.42316846 65.50769295 244 68 C245.32 66.02 246.64 64.04 248 62 C252.92329826 63.58724095 256.57566947 66.45458353 260.625 69.5625 C261.33575684 70.10261719 262.04651367 70.64273438 262.77880859 71.19921875 C268.63095354 75.6680813 274.3617555 80.26387462 280 85 C281.00546875 85.81984375 282.0109375 86.6396875 283.046875 87.484375 C290.74599033 93.83876213 297.87670339 100.69534214 304.9375 107.75 C305.82550293 108.63719727 306.71350586 109.52439453 307.62841797 110.43847656 C312.61625439 115.46868653 317.42995947 120.58720203 322 126 C322.51071045 126.60392578 323.0214209 127.20785156 323.54760742 127.83007812 C331.19959861 136.96780946 338.3247376 146.42001288 345.22265625 156.13671875 C347.38471845 159.17535218 349.63004605 162.11854519 352 165 C353.36125 163.7315625 353.36125 163.7315625 354.75 162.4375 C368.61561054 150.67946226 388.00502799 144.45120742 406 143 C406.70898438 142.93554688 407.41796875 142.87109375 408.1484375 142.8046875 C413.74112861 142.52598196 418.84243881 143.4519132 424.25 144.75 C424.92353516 144.90686279 425.59707031 145.06372559 426.29101562 145.2253418 C434.54551709 147.3532641 440.20238094 152.10358362 445 159 C446.33992856 162.31370293 446.9404961 165.62897513 447.52197266 169.14697266 C447.71370371 170.17353281 447.90543476 171.20009296 448.10297585 172.257761 C448.76243303 175.83412806 449.38080809 179.41645346 450 183 C450.3700671 185.06668955 450.74435222 187.13258613 451.11908734 189.198434 C452.85959487 198.79670189 454.53300769 208.40626697 456.19391584 218.01858091 C456.65336661 220.67695727 457.11376599 223.33516779 457.57442093 225.99333572 C459.02151982 234.34550018 460.4652654 242.69823369 461.90405023 251.05183446 C463.55483971 260.6361216 465.21714508 270.21831956 466.88913476 279.79893053 C468.19026998 287.25862836 469.48122409 294.72004372 470.76451743 302.18283141 C471.52766633 306.61946992 472.2950084 311.05528063 473.07307053 315.48933029 C473.80214135 319.64578516 474.51849327 323.80423801 475.22533417 327.96452904 C475.48559527 329.4834024 475.75031689 331.00151974 476.0199852 332.51875114 C478.36352749 345.73018287 479.02478288 358.07918415 471.1796875 369.6953125 C469.5083818 371.85380043 467.80199804 373.94997414 466 376 C468.01631078 377.51677433 470.0358892 379.02603991 472.078125 380.5078125 C485.74511161 390.68430972 493.38094656 403.0634544 496 420 C497.21450712 430.66067359 493.56634438 439.72069622 487 448 C478.69541796 458.20166605 466.43176095 464.28848876 454 468 C453.06929687 468.28617188 452.13859375 468.57234375 451.1796875 468.8671875 C436.95927795 472.84890217 421.76568752 473.75351863 408.390625 466.60546875 C406.4034437 465.18978884 404.71027771 463.73625661 403 462 C402.50113281 461.51402344 402.00226562 461.02804687 401.48828125 460.52734375 C397.20196718 455.92170542 396 451.16407233 396 445 C395.34 445 394.68 445 394 445 C393.88527344 446.10859375 393.77054688 447.2171875 393.65234375 448.359375 C390.3575802 474.42055499 379.33492496 500.51340723 368 524 C367.66790527 524.69448242 367.33581055 525.38896484 366.99365234 526.10449219 C352.55508693 556.15910921 334.31480026 584.17572389 312 609 C311.29375488 609.79083984 311.29375488 609.79083984 310.57324219 610.59765625 C302.07278832 620.08274117 293.05989747 629.05257261 284 638 C284.72662842 637.92998779 285.45325684 637.85997559 286.2019043 637.7878418 C312.41817749 635.32127454 336.18997747 640.25981886 356.75 657.1875 C373.07049119 671.27834894 384.29543757 692.0611353 385.90625 713.7265625 C385.9371875 714.47679687 385.968125 715.22703125 386 716 C386.0515625 716.93585937 386.103125 717.87171875 386.15625 718.8359375 C386.87564459 743.11550487 377.92923534 765.03297588 361.390625 782.69921875 C357.96848753 785.99274648 354.28449209 788.90724549 350.55859375 791.84765625 C348.24127518 793.79703417 346.36373859 795.73741671 344.4375 798.0625 C334.24230755 810.1767875 319.14514815 817.98103611 304 822 C303.18015625 822.22429688 302.3603125 822.44859375 301.515625 822.6796875 C280.78721303 827.37898587 258.22085292 823.50577075 239.8125 813.21875 C218.12536597 799.43838358 204.78662732 779.89521533 199 755 C198.45182665 752.16777104 198.11606029 749.83380544 198 747 C197.9484375 745.85273437 197.896875 744.70546875 197.84375 743.5234375 C197.23366051 723.2266172 202.52233868 705.7896368 214 689 C214.33 688.34 214.66 687.68 215 687 C214.35901367 687.33620361 213.71802734 687.67240723 213.05761719 688.01879883 C192.21176698 698.87862405 170.95303081 707.94128816 148.5625 715.1875 C147.66305664 715.47931152 146.76361328 715.77112305 145.83691406 716.07177734 C141.80582192 717.32514869 138.27563608 718.39507931 134 718 C133.34 715.69 132.68 713.38 132 711 C125.31796286 711.71935806 118.82600917 713.00495593 112.25 714.375 C104.31413074 715.98990454 96.38142084 717.52666459 88.375 718.75 C87.27913574 718.92281494 87.27913574 718.92281494 86.16113281 719.09912109 C52.35411302 724.05838432 14.49449312 723.67095204 -19 717 C-21.42704136 716.54014301 -23.85412587 716.08051368 -26.28125 715.62109375 C-32.20184639 714.47911739 -38.10573363 713.2706203 -44 712 C-44 711.67 -44 711.34 -44 711 C-42.6903125 710.96261719 -41.380625 710.92523437 -40.03125 710.88671875 C19.33173491 708.87805188 76.71865535 690.42425309 124 654 C124.92425781 653.28972656 125.84851563 652.57945312 126.80078125 651.84765625 C132.77376398 647.15658894 138.395202 642.12074726 144 637 C144.93328125 636.17113281 145.8665625 635.34226562 146.828125 634.48828125 C152.3106867 629.59741678 157.28766288 624.62409277 162 619 C162.87011719 618.01773438 163.74023438 617.03546875 164.63671875 616.0234375 C193.0182245 583.9136318 212.38104998 545.58695112 223.4375 504.3125 C223.76758057 503.08426514 224.09766113 501.85603027 224.43774414 500.59057617 C226.24033835 493.63340181 227.60109338 486.76700718 228.49243164 479.63354492 C229 477 229 477 231 474 C233.58203125 472.7890625 233.58203125 472.7890625 236.8125 471.625 C237.99070312 471.191875 239.16890625 470.75875 240.3828125 470.3125 C241.57648437 469.879375 242.77015625 469.44625 244 469 C246.06448674 468.21352886 248.12702649 467.42192614 250.1875 466.625 C251.26 466.2125 252.3325 465.8 253.4375 465.375 C259.8532034 462.8987636 266.26102794 460.40227519 272.66943359 457.90722656 C276.44589988 456.43715023 280.222974 454.96863752 284 453.5 C285.50000306 452.91667453 287.00000305 452.33334118 288.5 451.75 C297.5 448.25 306.5 444.75 315.5 441.25 C316.24290283 440.96108887 316.98580566 440.67217773 317.7512207 440.37451172 C319.24713947 439.79277455 320.74307041 439.21106869 322.23901367 438.62939453 C326.05155835 437.14689976 329.86387226 435.66381613 333.67578125 434.1796875 C334.44494873 433.88046387 335.21411621 433.58124023 336.0065918 433.27294922 C337.53067195 432.67945353 339.05428161 432.08474806 340.57739258 431.48876953 C343.96432747 430.16599928 347.35385826 428.86121153 350.7734375 427.625 C361.10209749 423.84333959 367.94044833 420.11910333 373 410 C380.30073252 391.05878065 376.80626801 371.26666715 369 353 C363.18527391 340.27375816 354.74210762 327.50799836 341.49609375 321.94921875 C329.37365538 317.74800729 318.6014699 323.01025929 307.625 328.3125 C306.38762085 328.90200439 306.38762085 328.90200439 305.12524414 329.50341797 C299.59581682 332.16045074 294.21935049 334.98453279 288.93359375 338.1015625 C288.29550781 338.39804687 287.65742187 338.69453125 287 339 C286.34 338.67 285.68 338.34 285 338 C285.46148438 336.906875 285.92296875 335.81375 286.3984375 334.6875 C287.05740425 333.12504748 287.71624753 331.56254288 288.375 330 C288.72860596 329.16146484 289.08221191 328.32292969 289.4465332 327.45898438 C291.50471585 322.57174746 293.55087542 317.67978555 295.58203125 312.78125 C296.01531738 311.73710938 296.44860352 310.69296875 296.89501953 309.6171875 C297.73480786 307.59179699 298.57310861 305.56578882 299.40966797 303.5390625 C301.39817119 298.74521889 303.44313505 293.99203707 305.61328125 289.27734375 C307.60667643 284.93072637 309.38056209 280.55977775 311 276.0625 C312.76864528 271.24016917 314.60615663 266.47508433 316.625 261.75 C317.41948296 259.83449901 318.21122469 257.91785837 319 256 C319.59361328 254.60974609 319.59361328 254.60974609 320.19921875 253.19140625 C325.75682837 238.81962278 323.87109703 223.00823151 318 209 C315.48250303 203.98422359 312.3539261 199.48587615 309 195 C308.484375 194.27167969 307.96875 193.54335938 307.4375 192.79296875 C301.34375909 184.8468691 291.74007851 180.47852057 282 179 C274.65588142 178.31956042 268.41128873 180.00955189 261.4375 182.1875 C260.38409424 182.50630127 259.33068848 182.82510254 258.24536133 183.15356445 C255.15984446 184.09068922 252.07975536 185.04414282 249 186 C247.42217506 186.48015379 245.84408237 186.95942936 244.265625 187.4375 C238.58143844 189.17192769 232.94357831 190.9833492 227.375 193.0625 C223.55809466 194.48470479 219.7393588 195.66786923 215.8125 196.75 C209.19159955 198.59075584 202.69760618 200.73886698 196.1875 202.9375 C188.6029953 205.49709466 181.01374534 207.93526665 173.31689453 210.13208008 C166.63878055 212.05867641 160.06018199 214.26724677 153.47973633 216.50219727 C150.98997139 217.34569636 148.49614199 218.1755772 146 219 C145.10522949 219.30131836 144.21045898 219.60263672 143.28857422 219.91308594 C142.40830566 220.19700195 141.52803711 220.48091797 140.62109375 220.7734375 C139.83017334 221.03302246 139.03925293 221.29260742 138.22436523 221.56005859 C135.71769395 222.05583531 134.3788811 221.8932303 132 221 C129.8283708 219.40244634 127.76015227 217.77904635 125.6875 216.0625 C100.02475718 195.44035345 70.97798397 181.60194796 40 171 C39.24332031 170.73558105 38.48664063 170.47116211 37.70703125 170.19873047 C-27.20002056 147.61622381 -103.13827909 155.74047928 -164.46875 185.2421875 C-182.49702986 194.13788437 -199.14254836 204.63954533 -215 217 C-215.87785156 217.68320312 -216.75570312 218.36640625 -217.66015625 219.0703125 C-231.52818209 230.14022414 -244.64024826 242.52662956 -255.70947266 256.39746094 C-257.07550281 258.09375718 -258.46375378 259.77003968 -259.85546875 261.4453125 C-274.58351806 279.30310234 -285.88513693 299.23791265 -296 320 C-303.59 320.33 -311.18 320.66 -319 321 C-314.06441738 285.46380515 -304.97105358 251.75295425 -289.88867188 219.13696289 C-289.04274777 217.10279428 -288.47078193 215.14870485 -288 213 C-290.31 211.68 -292.62 210.36 -295 209 C-288.90412826 195.39204389 -281.95094541 182.61224107 -274 170 C-273.32324219 168.92492187 -272.64648438 167.84984375 -271.94921875 166.7421875 C-260.7862776 149.57946427 -248.06658772 133.62804943 -234.2890625 118.51171875 C-232.68794881 116.75486533 -231.1004635 114.98553849 -229.5234375 113.20703125 C-175.87924469 53.3122614 -97.82467788 14.69518696 -19.0625 2.0625 C-18.389841 1.95459137 -17.71718201 1.84668274 -17.0241394 1.73550415 C-5.23284639 -0.13156386 -5.23284639 -0.13156386 0 0 Z " fill="#88FAF3" transform="translate(560,230)"/>
<path d="M0 0 C15.8641768 5.35473669 28.42408512 13.8991975 40.109375 25.78125 C40.93179688 26.60496094 41.75421875 27.42867187 42.6015625 28.27734375 C66.09151464 53.02713761 77.00334515 89.44542977 76.37524414 123.02416992 C76.30514368 125.2777272 76.21082181 127.52892046 76.109375 129.78125 C76.07714844 130.92207031 76.04492188 132.06289063 76.01171875 133.23828125 C75.42240805 145.2511532 72.52998063 157.27697099 69.109375 168.78125 C69.75487305 169.12381836 70.40037109 169.46638672 71.06542969 169.81933594 C74.00077795 171.38253291 76.93007466 172.95675106 79.859375 174.53125 C80.87515625 175.07007813 81.8909375 175.60890625 82.9375 176.1640625 C83.9171875 176.69257812 84.896875 177.22109375 85.90625 177.765625 C87.25734863 178.48830566 87.25734863 178.48830566 88.63574219 179.22558594 C92.87239079 181.89000806 94.84828962 183.64366371 95.984375 188.59375 C96.63590057 197.43820955 92.10633505 206.26701763 86.58203125 212.94921875 C85.64139459 214.02578838 84.6921314 215.09488192 83.734375 216.15625 C83.28843994 216.65600342 82.84250488 217.15575684 82.38305664 217.6706543 C78.42921641 221.87724496 74.2884988 224.95125724 68.640625 226.42578125 C64.42827841 225.353193 61.73572266 222.3815155 58.609375 219.46875 C52.76803084 214.08306453 52.76803084 214.08306453 46.109375 209.78125 C45.10970703 210.92400391 45.10970703 210.92400391 44.08984375 212.08984375 C29.99793401 227.97780654 14.24964475 238.30590382 -5.890625 244.78125 C-6.94636719 245.12285156 -8.00210938 245.46445312 -9.08984375 245.81640625 C-28.41572663 251.13659168 -50.21562189 247.9452028 -67.890625 238.78125 C-98.30813383 221.1693064 -117.57411404 194.31429458 -126.671875 160.578125 C-127.08181727 158.98010931 -127.48829101 157.38119818 -127.890625 155.78125 C-128.15746094 154.76708008 -128.15746094 154.76708008 -128.4296875 153.73242188 C-133.66858984 133.13023054 -132.45399635 109.4156248 -127.890625 88.78125 C-127.74028809 88.08386719 -127.58995117 87.38648438 -127.43505859 86.66796875 C-122.24141945 63.75771008 -110.02454407 42.64192218 -93.890625 25.78125 C-93.26800781 25.09546875 -92.64539063 24.4096875 -92.00390625 23.703125 C-78.7946712 9.63542813 -61.20779071 0.9857343 -42.4609375 -2.52734375 C-27.77016974 -5.37227361 -14.52207976 -4.63561955 0 0 Z M-41.890625 103.78125 C-48.92056655 116.0905943 -52.43903397 130.19396647 -48.640625 144.15625 C-46.89317052 149.23529995 -45.13965714 153.65673393 -40.140625 156.15625 C-39.398125 156.3625 -38.655625 156.56875 -37.890625 156.78125 C-38.09558594 156.17796875 -38.30054688 155.5746875 -38.51171875 154.953125 C-38.78113281 154.15390625 -39.05054688 153.3546875 -39.328125 152.53125 C-39.59496094 151.74234375 -39.86179687 150.9534375 -40.13671875 150.140625 C-42.03302107 144.20608303 -42.556721 139.23747898 -40.890625 133.09375 C-38.34831179 123.71784314 -40.02959646 113.31406602 -40.890625 103.78125 C-41.220625 103.78125 -41.550625 103.78125 -41.890625 103.78125 Z " fill="#02497A" transform="translate(279.890625,570.21875)"/>
<path d="M0 0 C9.7017798 7.23810542 15.42698595 18.04419714 18.23046875 29.6640625 C18.6015625 33.171875 18.6015625 33.171875 18.66796875 36.7890625 C18.70792969 37.96726562 18.74789062 39.14546875 18.7890625 40.359375 C18.33881477 46.5026233 15.57395154 52.04501565 13.23046875 57.6640625 C12.58476241 59.23903923 11.94004802 60.81442287 11.29614258 62.39013672 C9.01990647 67.94663539 6.718962 73.49278162 4.41796875 79.0390625 C2.71007335 83.16240288 1.00339771 87.2862476 -0.703125 91.41015625 C-1.13107361 92.44396927 -1.55902222 93.47778229 -1.99993896 94.54292297 C-5.74075138 103.58398977 -9.45295951 112.63661795 -13.15853882 121.69216919 C-20.26490098 139.05743579 -27.47619183 156.37649782 -34.76953125 173.6640625 C-23.31045374 168.29405421 -11.90626405 162.81240794 -0.52157593 157.2868042 C1.79236984 156.16435302 4.107465 155.04429689 6.42260742 153.92431641 C12.71127498 150.87658207 18.99045031 147.82806143 25.171875 144.56640625 C25.98906006 144.1384375 26.80624512 143.71046875 27.64819336 143.26953125 C29.04707656 142.52931919 30.43839192 141.77447018 31.81860352 141 C36.6560438 138.4438342 40.88765235 137.9911423 46.23046875 138.6640625 C55.20042422 141.98233995 60.80063759 153.02625433 65.02734375 161.09375 C71.22183872 174.61737515 75.06398974 190.00697573 70.12890625 204.47265625 C67.29559629 211.3834688 62.70602422 212.95318203 56.23046875 215.6640625 C53.16944428 216.91541816 50.09371835 218.12556149 47.01171875 219.32421875 C45.6999189 219.83723289 45.6999189 219.83723289 44.36161804 220.36061096 C41.48538922 221.48470999 38.6079593 222.60569763 35.73046875 223.7265625 C33.68655836 224.52445782 31.64269537 225.32247457 29.59887695 226.12060547 C12.83473875 232.66346855 -3.94452613 239.16735784 -20.72460938 245.66918945 C-33.36954878 250.56887459 -46.01347748 255.47110677 -58.64950562 260.39373779 C-60.35632764 261.05843079 -62.06336847 261.72256227 -63.7706604 262.38604736 C-66.13550474 263.30521699 -68.49950484 264.22652548 -70.86328125 265.1484375 C-71.60692429 265.437258 -72.35056732 265.72607849 -73.116745 266.02365112 C-76.92269632 267.5112566 -80.69788998 269.04910744 -84.44921875 270.66992188 C-85.21157837 270.99607483 -85.97393799 271.32222778 -86.75939941 271.65826416 C-88.19510167 272.27594087 -89.62645117 272.90388648 -91.05212402 273.54437256 C-95.46246836 275.43673103 -98.98757054 276.0495437 -103.76953125 275.6640625 C-107.15618306 274.19112003 -109.89245624 271.96373145 -112.76953125 269.6640625 C-113.45273437 269.13039063 -114.1359375 268.59671875 -114.83984375 268.046875 C-124.36642613 259.64106701 -129.65802773 246.33743422 -131.24609375 233.9453125 C-131.64402419 223.8085581 -129.29335424 216.92272554 -124.2421875 208.22265625 C-122.52968124 205.24734697 -120.88288953 202.23993182 -119.23828125 199.2265625 C-116.52764933 194.26433085 -113.79812183 189.31309707 -111.05078125 184.37109375 C-107.27381314 177.5761606 -103.5141019 170.77187131 -99.76147461 163.96347046 C-98.09835179 160.9465276 -96.43387028 157.93033453 -94.76953125 154.9140625 C-94.10285813 153.70573273 -93.43619146 152.49739939 -92.76953125 151.2890625 C-88.76953125 144.03906249 -88.76953125 144.03906249 -87.76971436 142.22689819 C-87.10243304 141.01744826 -86.43515602 139.80799594 -85.7678833 138.59854126 C-84.11065599 135.59477256 -82.45335606 132.59104397 -80.79589844 129.58740234 C-77.6833039 123.94658152 -74.57145528 118.30535275 -71.46203613 112.66278076 C-70.00002838 110.00981883 -68.53762665 107.35707416 -67.07519531 104.7043457 C-66.38098827 103.44485119 -65.68697234 102.18525133 -64.99316406 100.92553711 C-61.62700715 94.81386876 -58.25787001 88.70699278 -54.76953125 82.6640625 C-55.55263672 82.9000415 -56.33574219 83.13602051 -57.14257812 83.37915039 C-86.3938429 92.18825501 -86.3938429 92.18825501 -99.83105469 96.05322266 C-105.18712478 97.59806965 -110.51819637 99.20253692 -115.8359375 100.875 C-117.03259033 101.2455249 -118.22924316 101.6160498 -119.4621582 101.99780273 C-121.75797152 102.71013353 -124.04986028 103.43529902 -126.33666992 104.17602539 C-134.13550403 106.57562086 -142.7504658 108.74526569 -150.58740234 105.49560547 C-164.92784354 97.64449462 -173.28733077 83.47720578 -177.921875 68.25390625 C-179.46707246 61.70995939 -180.01296965 56.34223751 -177.14453125 50.1640625 C-173.18966948 46.00105011 -168.3162787 44.38038058 -162.89453125 42.7890625 C-161.755 42.44875 -160.61546875 42.1084375 -159.44140625 41.7578125 C-157.62382813 41.21640625 -157.62382813 41.21640625 -155.76953125 40.6640625 C-153.2264238 39.87665685 -150.68471125 39.08576535 -148.14453125 38.2890625 C-147.47929443 38.08095947 -146.81405762 37.87285645 -146.12866211 37.65844727 C-138.47869864 35.26393548 -130.83584116 32.84689488 -123.19287109 30.43017578 C-119.21874266 29.17379708 -115.24411493 27.91900012 -111.26953125 26.6640625 C-109.68619546 26.16407029 -108.10286212 25.66407029 -106.51953125 25.1640625 C-90.68619792 20.1640625 -74.85286458 15.1640625 -59.01953125 10.1640625 C-57.84293945 9.79244995 -57.84293945 9.79244995 -56.64257812 9.41333008 C-55.0658438 8.91549081 -53.48902143 8.41793031 -51.91210938 7.9206543 C-47.85202896 6.63991553 -43.7937862 5.35375405 -39.73828125 4.05859375 C-35.08776624 2.57511077 -30.43170332 1.11048273 -25.76953125 -0.3359375 C-24.10857422 -0.85220703 -24.10857422 -0.85220703 -22.4140625 -1.37890625 C-14.05990361 -3.83330052 -7.74082348 -4.76973288 0 0 Z " fill="#02497A" transform="translate(849.76953125,427.3359375)"/>
<path d="M0 0 C4.92329826 1.58724095 8.57566947 4.45458353 12.625 7.5625 C13.33575684 8.10261719 14.04651367 8.64273437 14.77880859 9.19921875 C20.63095354 13.6680813 26.3617555 18.26387462 32 23 C33.50820313 24.22976563 33.50820313 24.22976563 35.046875 25.484375 C42.74599033 31.83876213 49.87670339 38.69534214 56.9375 45.75 C57.82550293 46.63719727 58.71350586 47.52439453 59.62841797 48.43847656 C64.61625439 53.46868653 69.42995947 58.58720203 74 64 C74.51071045 64.60392578 75.0214209 65.20785156 75.54760742 65.83007812 C83.19959861 74.96780946 90.3247376 84.42001288 97.22265625 94.13671875 C99.38471845 97.17535218 101.63004605 100.11854519 104 103 C105.36125 101.7315625 105.36125 101.7315625 106.75 100.4375 C120.61561054 88.67946226 140.00502799 82.45120742 158 81 C158.70898438 80.93554688 159.41796875 80.87109375 160.1484375 80.8046875 C165.74112861 80.52598196 170.84243881 81.4519132 176.25 82.75 C176.92353516 82.90686279 177.59707031 83.06372559 178.29101562 83.2253418 C186.54551709 85.3532641 192.20238094 90.10358362 197 97 C198.33992856 100.31370293 198.9404961 103.62897513 199.52197266 107.14697266 C199.71370371 108.17353281 199.90543476 109.20009296 200.10297585 110.257761 C200.76243303 113.83412806 201.38080809 117.41645346 202 121 C202.3700671 123.06668955 202.74435222 125.13258613 203.11908734 127.198434 C204.85959487 136.79670189 206.53300769 146.40626697 208.19391584 156.01858091 C208.65336661 158.67695727 209.11376599 161.33516779 209.57442093 163.99333572 C211.02151982 172.34550018 212.4652654 180.69823369 213.90405023 189.05183446 C215.55483971 198.6361216 217.21714508 208.21831956 218.88913476 217.79893053 C220.19026998 225.25862836 221.48122409 232.72004372 222.76451743 240.18283141 C223.52766633 244.61946992 224.2950084 249.05528063 225.07307053 253.48933029 C225.80214135 257.64578516 226.51849327 261.80423801 227.22533417 265.96452904 C227.48559527 267.4834024 227.75031689 269.00151974 228.0199852 270.51875114 C230.36352749 283.73018287 231.02478288 296.07918415 223.1796875 307.6953125 C221.5083818 309.85380043 219.80199804 311.94997414 218 314 C220.01631078 315.51677433 222.0358892 317.02603991 224.078125 318.5078125 C237.74511161 328.68430972 245.38094656 341.0634544 248 358 C249.21450712 368.66067359 245.56634438 377.72069622 239 386 C230.69541796 396.20166605 218.43176095 402.28848876 206 406 C205.06929687 406.28617188 204.13859375 406.57234375 203.1796875 406.8671875 C188.95927795 410.84890217 173.76568752 411.75351863 160.390625 404.60546875 C158.40573529 403.19142138 156.71459168 401.72764695 155 400 C154.071875 399.113125 153.14375 398.22625 152.1875 397.3125 C147.22961972 389.80485272 146.38658646 380.81417123 146 372 C145.92394531 370.74445313 145.84789062 369.48890625 145.76953125 368.1953125 C145.24608553 355.87319617 147.21337706 343.0339191 153 332 C152.1646875 331.88785156 152.1646875 331.88785156 151.3125 331.7734375 C144.4565482 330.59217553 139.01563068 328.08599685 134.79753113 322.37072754 C131.47458042 317.34630633 129.8793961 312.83067176 128.75390625 306.9453125 C128.57762192 306.09548798 128.40133759 305.24566345 128.2197113 304.37008667 C127.65299826 301.6244325 127.10795409 298.87494797 126.5625 296.125 C126.16918962 294.20534469 125.7739923 292.28607506 125.37695312 290.3671875 C124.78571318 287.50963384 124.1953205 284.65195563 123.61074829 281.79302979 C122.18662183 274.83401087 120.64345597 267.91065965 119 261 C116.38240174 249.8873812 113.99845642 238.7291528 111.625 227.5625 C108.98113017 215.12549363 106.28808488 202.70426985 103.42840576 190.31497192 C102.11748179 184.6337309 100.81857312 178.94971666 99.51873779 173.26593018 C99.16184908 171.70698283 98.80426567 170.14819441 98.44610596 168.58953857 C97.29577088 163.58080076 96.160544 158.56901993 95.04397583 153.55264282 C94.68783932 151.963285 94.32691633 150.37499033 93.96066284 148.78793335 C92.26499878 141.42878493 90.79675259 134.47070826 91.01953125 126.859375 C91.18140723 121.23571595 90.49141099 118.67294053 87.1875 114.125 C86.78370117 113.55313965 86.37990234 112.9812793 85.96386719 112.39208984 C85.10546002 111.1863257 84.23295484 109.99048329 83.34716797 108.8046875 C82.00360648 107.0048313 80.70369382 105.17980182 79.41015625 103.34375 C68.70299127 88.27984913 56.85412778 74.26644944 44 61 C43.37270996 60.3507959 42.74541992 59.7015918 42.09912109 59.03271484 C34.44262136 51.14390665 26.65729131 43.79476648 18 37 C16.71511955 35.95206712 15.43274565 34.90105649 14.15234375 33.84765625 C6.60271494 27.64141596 -0.9944531 21.61405938 -9 16 C-7.30523158 12.47351217 -5.35497316 9.1232876 -3.375 5.75 C-2.74335937 4.67234375 -2.11171875 3.5946875 -1.4609375 2.484375 C-0.73777344 1.25460937 -0.73777344 1.25460937 0 0 Z " fill="#CCFCF9" transform="translate(808,292)"/>
<path d="M0 0 C0.63728027 0.26635254 1.27456055 0.53270508 1.93115234 0.80712891 C5.39175481 2.52827932 7.50158438 3.96156664 9.20214844 7.50463867 C10.16657391 10.64949297 10.92412771 13.78614236 11.625 17 C12.19749871 19.36239666 12.77173956 21.72437177 13.34765625 24.0859375 C13.62367676 25.25866211 13.89969727 26.43138672 14.18408203 27.63964844 C15.32726386 32.34783358 16.68436451 36.98134136 18.0625 41.625 C20.51593733 50.0571706 22.66286143 58.54848908 24.75463867 67.07666016 C26.32430732 73.42962052 28.03095035 79.72167153 29.875 86 C32.52575334 95.07178316 34.88735055 104.20949867 37.1875 113.375 C37.35594421 114.04128418 37.52438843 114.70756836 37.69793701 115.39404297 C44.08731243 140.71701477 50.70378017 168.99502595 40 194 C39.60425781 194.94875 39.20851563 195.8975 38.80078125 196.875 C29.65396379 216.80959221 11.88842578 228.41524824 -8 236 C-12.95229273 237.83236125 -17.94604692 239.46586139 -23 241 C-24.02222656 241.32226562 -25.04445313 241.64453125 -26.09765625 241.9765625 C-44.66280134 247.10293805 -65.88108888 245.03547983 -82.77734375 235.94921875 C-104.61430026 222.74116869 -115.19548849 200.64963603 -121.13806152 176.64129639 C-122.84525548 169.42918166 -124.35158987 162.1737954 -125.87890625 154.921875 C-126.25116724 153.16217396 -126.62360795 151.40251093 -126.99621582 149.6428833 C-127.98440895 144.97322077 -128.96978733 140.30296868 -129.95448685 135.63256836 C-130.76711515 131.77992698 -131.58136703 127.92762947 -132.39559078 124.07532501 C-152.49813284 28.95799221 -152.49813284 28.95799221 -149.9296875 23.88671875 C-144.11075551 16.3571962 -133.03446597 10.77885548 -123.66796875 9.21484375 C-109.99783696 8.11402787 -98.47760089 7.92417223 -87.47265625 17.14453125 C-83.68253125 21.91988769 -82.57879 27.30792019 -81.9375 33.2421875 C-81.86125397 33.91832092 -81.78500793 34.59445435 -81.70645142 35.29107666 C-81.54500593 36.73504248 -81.38851676 38.17956986 -81.2366333 39.62457275 C-80.99512717 41.92134152 -80.74019783 44.21628932 -80.48193359 46.51123047 C-80.05416599 50.32640244 -79.63636343 54.14257537 -79.2220459 57.95922852 C-77.59131681 72.94687498 -75.65004908 87.87726236 -73.4520874 102.79168701 C-73.19753415 104.52043979 -72.94488779 106.24947472 -72.69439697 107.9788208 C-69.4638763 130.25225934 -69.4638763 130.25225934 -63.1875 151.8125 C-62.93814697 152.49916748 -62.68879395 153.18583496 -62.43188477 153.89331055 C-57.12687876 168.236279 -57.12687876 168.236279 -46 178 C-41.53972142 178.41050351 -37.37691107 178.47892559 -33.125 177 C-28.57226492 172.71507286 -26.25170993 166.62878917 -25.82299805 160.44824219 C-25.4722568 143.84183178 -26.52896349 128.24782355 -30 112 C-30.28883057 110.64334229 -30.28883057 110.64334229 -30.58349609 109.25927734 C-34.46737049 91.41681677 -39.58167387 73.91606992 -45.45117188 56.63330078 C-47.84414229 49.56547261 -49.99638253 42.44499596 -52.0546875 35.2734375 C-52.66211989 33.17001458 -53.30765889 31.07702332 -54 29 C-54.71341376 22.12065306 -54.76250435 16.42577188 -50.53515625 10.73828125 C-38.53072109 -2.85452701 -16.72706579 -7.95621798 0 0 Z " fill="#02497A" transform="translate(516,522)"/>
<path d="M0 0 C2.52317556 2.20098545 4.91973514 4.47447848 7.2890625 6.83984375 C8.05992187 7.59910156 8.83078125 8.35835937 9.625 9.140625 C25.64609185 25.84521053 31.82984068 47.3002522 31.71264648 70.04003906 C31.3023281 85.256592 26.5844917 100.36868766 17.71875 112.8046875 C16.22542896 114.86976103 16.22542896 114.86976103 14.85546875 117.296875 C4.8685048 133.5101257 -13.25073512 143.99861166 -31.30297852 148.81494141 C-53.24118892 154.00099444 -76.20268531 151.0650435 -95.8984375 140.05859375 C-117.58557153 126.27822733 -130.92431018 106.73505908 -136.7109375 81.83984375 C-137.25911085 79.00761479 -137.59487721 76.67364919 -137.7109375 73.83984375 C-137.7625 72.69257812 -137.8140625 71.5453125 -137.8671875 70.36328125 C-138.52954954 48.3274269 -132.28160231 27.09891576 -117.296875 10.44921875 C-114.26767302 7.37525024 -111.03082977 4.59307537 -107.7109375 1.83984375 C-106.74607422 0.99099609 -106.74607422 0.99099609 -105.76171875 0.125 C-96.83888634 -7.37017923 -85.04562279 -13.3528692 -73.7109375 -16.16015625 C-72.94652344 -16.36253906 -72.18210937 -16.56492187 -71.39453125 -16.7734375 C-46.35388761 -22.39324607 -19.93138358 -15.8819238 0 0 Z " fill="#CDFDFA" transform="translate(895.7109375,903.16015625)"/>
<path d="M0 0 C3.06334867 3.30055182 3.71361197 6.34277287 4.51782227 10.71948242 C4.65002859 11.42215807 4.78223492 12.12483372 4.91844749 12.84880257 C5.37413784 15.28669212 5.8137749 17.72722526 6.25390625 20.16796875 C6.59028088 21.98700031 6.92760886 23.80585577 7.26576233 25.6245575 C8.05645519 29.8912059 8.83925768 34.15922357 9.61749268 38.42816162 C11.03597915 46.20714188 12.46978049 53.98326098 13.90422511 61.75931001 C17.42968861 80.87439707 20.934395 99.99327296 24.43575537 119.11278713 C27.09840622 133.65236901 29.76380197 148.19144794 32.42931849 162.73050469 C33.36118788 167.81368145 34.29251922 172.89695641 35.22337615 177.98031867 C35.79788639 181.11737315 36.37270928 184.25437028 36.9475975 187.39135551 C37.21340051 188.84217862 37.47906289 190.29302749 37.74457359 191.74390411 C38.10688924 193.72369013 38.46974437 195.7033774 38.83262634 197.68305969 C39.03516997 198.78904668 39.2377136 199.89503366 39.44639492 201.03453541 C39.79896865 202.92314691 40.16713786 204.80896149 40.55587101 206.69046307 C41.84851094 213.41238334 42.51628667 221.43366325 38.9375 227.5 C37.53125 229.3359375 37.53125 229.3359375 36 231 C35.5153125 231.52851562 35.030625 232.05703125 34.53125 232.6015625 C23.1219523 243.50750883 5.10639282 248.35770207 -10.31640625 248.1484375 C-15.21220545 247.87763638 -18.69971137 246.88656043 -22.75 244.125 C-24.98650472 241.01874344 -25.58890433 239.29078181 -26.44140625 235.64453125 C-26.69647949 234.57041992 -26.95155273 233.49630859 -27.21435547 232.38964844 C-27.47361816 231.27106445 -27.73288086 230.15248047 -28 229 C-28.25281738 227.94586914 -28.50563477 226.89173828 -28.76611328 225.80566406 C-32.72068153 209.31628269 -36.3835122 192.76870106 -39.94360352 176.19042969 C-45.90969833 148.41198708 -52.1100553 120.6857055 -58.64453125 93.03515625 C-61.82348967 79.55937258 -64.92353394 66.06768365 -67.8916626 52.54385376 C-68.25243391 50.90380261 -68.61563224 49.26428327 -68.98138428 47.62533569 C-69.49359844 45.32597734 -69.9960835 43.0246951 -70.49609375 40.72265625 C-70.64885269 40.04472015 -70.80161163 39.36678406 -70.95899963 38.66830444 C-72.46216998 31.63945247 -72.95039221 25.25591121 -69 19 C-60.84010766 8.37714803 -47.65048669 2.37109743 -35 -1 C-33.79150391 -1.33644531 -33.79150391 -1.33644531 -32.55859375 -1.6796875 C-22.49591724 -4.10003473 -9.40490896 -5.0410312 0 0 Z " fill="#02497A" transform="translate(633,482)"/>
<path d="M0 0 C3.72970657 3.80225476 4.83440907 7.32485245 5.61230469 12.45678711 C5.79897674 13.56277819 5.79897674 13.56277819 5.98941994 14.69111252 C6.39812166 17.13436347 6.78493829 19.5805596 7.171875 22.02734375 C7.45683261 23.75591088 7.74320761 25.48424488 8.03091431 27.21235657 C8.63871482 30.88038187 9.23708239 34.54976939 9.82781982 38.22058105 C10.75126357 43.95846935 11.69516981 49.69286507 12.64306641 55.42675781 C13.58170667 61.11007782 14.51927999 66.7935558 15.44924927 72.478302 C17.53096431 85.20276188 19.67334534 97.91429333 21.91052246 110.61248779 C22.37153547 113.23032683 22.82940281 115.84869573 23.28613281 118.46728516 C24.55455884 125.73942179 25.82636347 133.01095747 27.10253906 140.28173828 C28.059121 145.73645138 29.00742858 151.19255626 29.95098877 156.64953613 C30.3114581 158.72627231 30.67461287 160.80254451 31.04071045 162.8782959 C31.54457893 165.73670484 32.03895972 168.59660879 32.53125 171.45703125 C32.75556198 172.70994713 32.75556198 172.70994713 32.98440552 173.98817444 C34.48495908 182.8319042 35.25108768 190.32048137 30 198 C23.18560974 207.25238326 8.96790276 213.62283162 -2.1640625 215.546875 C-21.57446456 217.83975345 -21.57446456 217.83975345 -28.875 214.5 C-32.29643777 211.54185419 -33.01952656 208.00116542 -33.96875 203.75390625 C-34.13635834 203.04420181 -34.30396667 202.33449738 -34.47665405 201.60328674 C-34.82432446 200.12517129 -35.16716664 198.64591234 -35.50531006 197.16558838 C-35.96241153 195.16454983 -36.43393433 193.16682025 -36.90673828 191.16943359 C-37.82946583 187.26252242 -38.73137973 183.35114198 -39.625 179.4375 C-39.79030212 178.71554443 -39.95560425 177.99358887 -40.12591553 177.24975586 C-43.72832302 161.48556295 -47.08037953 145.66916661 -50.42602539 129.84887695 C-52.80646972 118.59424816 -55.21610567 107.3491174 -57.73608398 96.12475586 C-59.26471236 89.31560692 -60.76895434 82.50152895 -62.2578125 75.68359375 C-62.45755173 74.76976929 -62.65729095 73.85594482 -62.86308289 72.91442871 C-64.47683686 65.53075566 -64.47683686 65.53075566 -65.27151489 61.87823486 C-67.20656098 52.98561386 -69.14288034 44.10832161 -71.45263672 35.3034668 C-72.85507656 29.40158458 -72.20914782 25.16583116 -69.30078125 19.96875 C-61.50647947 8.17196893 -47.27081478 2.20388159 -34 -1 C-32.64841797 -1.33644531 -32.64841797 -1.33644531 -31.26953125 -1.6796875 C-21.18122924 -3.85530359 -9.30613273 -5.09203489 0 0 Z " fill="#02497A" transform="translate(987,393)"/>
<path d="M0 0 C0.81352826 4.47440544 1.05606391 8.71227258 1.03125 13.265625 C1.02673828 14.34102539 1.02222656 15.41642578 1.01757812 16.52441406 C1.00887695 17.7498291 1.00887695 17.7498291 1 19 C0.33693848 19.10022461 -0.32612305 19.20044922 -1.00927734 19.30371094 C-14.79733235 21.40443032 -28.45203278 23.67558703 -42 27 C-42.8677002 27.20850586 -43.73540039 27.41701172 -44.62939453 27.63183594 C-102.06636435 41.52966639 -154.55562824 70.03413842 -198 110 C-199.68692089 111.50065124 -201.37442962 113.00064193 -203.0625 114.5 C-210.53925066 121.23845083 -217.47962977 128.337569 -224 136 C-224.78761719 136.89847656 -225.57523437 137.79695312 -226.38671875 138.72265625 C-246.70009748 162.05328624 -263.18641519 188.37283038 -277 216 C-281.6889493 215.44380331 -285.19924267 214.11817327 -289.375 211.9375 C-290.43460937 211.38964844 -291.49421875 210.84179688 -292.5859375 210.27734375 C-293.38257813 209.85582031 -294.17921875 209.43429687 -295 209 C-288.90412826 195.39204389 -281.95094541 182.61224107 -274 170 C-273.32324219 168.92492187 -272.64648438 167.84984375 -271.94921875 166.7421875 C-260.7862776 149.57946427 -248.06658772 133.62804943 -234.2890625 118.51171875 C-232.68794881 116.75486533 -231.1004635 114.98553849 -229.5234375 113.20703125 C-175.87924469 53.3122614 -97.82467788 14.69518696 -19.0625 2.0625 C-18.389841 1.95459137 -17.71718201 1.84668274 -17.0241394 1.73550415 C-5.23284639 -0.13156386 -5.23284639 -0.13156386 0 0 Z " fill="#CDFDFA" transform="translate(560,230)"/>
<path d="M0 0 C8.30210415 6.07390522 13.24773867 16.02691339 15 26 C15.27841228 28.88228742 15.33372941 31.7305129 15.3125 34.625 C15.30730347 35.7860022 15.30730347 35.7860022 15.30200195 36.97045898 C15.16992029 44.07586849 14.51555207 51.30221321 12 58 C10.515 58.495 10.515 58.495 9 59 C5.79168762 57.21512006 2.76601476 55.28044306 -0.28710938 53.24804688 C-4.31996058 50.67654916 -7.05528596 49.24692574 -12 50 C-17.01567881 53.24543923 -19.19215542 56.17472302 -21 62 C-21.53697399 67.19074857 -20.96727927 69.77613706 -18 74 C-16.0346251 76.05076512 -13.94172119 77.93407047 -11.8125 79.8125 C-11.25369141 80.31458984 -10.69488281 80.81667969 -10.11914062 81.33398438 C-8.75116046 82.56165889 -7.37627084 83.7816269 -6 85 C-7.49766723 88.9531449 -9.71131078 90.4302392 -13.25 92.625 C-14.64992188 93.51058594 -14.64992188 93.51058594 -16.078125 94.4140625 C-24.18426863 98.81392121 -33.4845545 99.53365147 -42.47265625 97.41796875 C-50.45784946 93.94131405 -55.99727486 86.1748716 -59.2109375 78.3359375 C-59.47132813 77.56507813 -59.73171875 76.79421875 -60 76 C-60.53173828 74.46859375 -60.53173828 74.46859375 -61.07421875 72.90625 C-65.76569062 55.99796842 -61.63321416 36.78420979 -53.4375 21.6875 C-46.56466774 10.46101271 -36.87220293 0.46524396 -24.0390625 -3.625 C-15.5512368 -5.18597944 -7.48475258 -4.3736989 0 0 Z M-38 29 C-45.02994155 41.3093443 -48.54840897 55.41271647 -44.75 69.375 C-43.00254552 74.45404995 -41.24903214 78.87548393 -36.25 81.375 C-35.5075 81.58125 -34.765 81.7875 -34 82 C-34.20496094 81.39671875 -34.40992188 80.7934375 -34.62109375 80.171875 C-34.89050781 79.37265625 -35.15992188 78.5734375 -35.4375 77.75 C-35.70433594 76.96109375 -35.97117188 76.1721875 -36.24609375 75.359375 C-38.14239607 69.42483303 -38.666096 64.45622898 -37 58.3125 C-34.45768679 48.93659314 -36.13897146 38.53281602 -37 29 C-37.33 29 -37.66 29 -38 29 Z " fill="#CCFCF9" transform="translate(276,645)"/>
<path d="M0 0 C9.44454023 5.46237625 17.13683659 13.22795172 20.5625 23.8046875 C21.93833879 30.70844998 22.13190379 37.94981727 18.4375 44.1328125 C9.89765105 55.22533369 -3.83964467 60.85069406 -17.25 63.6875 C-36.39411342 65.28284279 -36.39411342 65.28284279 -43.60546875 59.7734375 C-49.88324609 51.78993355 -48.98940594 35.68612421 -48 26 C-46.06769246 16.2292924 -41.791588 7.34570843 -33.5 1.5625 C-23.54257361 -4.76912439 -10.62538469 -4.98537007 0 0 Z " fill="#034A7A" transform="translate(1018,621)"/>
<path d="M0 0 C2.375 0.140625 2.375 0.140625 5 1 C6.625 3.109375 6.625 3.109375 8 5.75 C12.29824422 13.39132306 17.83111636 18.61941796 26 22 C29.51767357 22.75360222 33.05833609 23.13644822 36.6418457 23.41870117 C41.82924166 23.82924166 41.82924166 23.82924166 44 26 C43.625 28.625 43.625 28.625 43 31 C29.09576663 31.85476844 19.07177108 29.48620324 8.19921875 20.171875 C2.42902043 14.47341982 -0.85371226 9.19211336 -1 1 C-0.67 0.67 -0.34 0.34 0 0 Z " fill="#C5F4F4" transform="translate(199,773)"/>
<path d="M0 0 C2.48046875 0 2.48046875 0 5 1 C6.30078125 3.625 6.30078125 3.625 7.3125 7 C10.64056305 16.37815297 15.24292296 21.83664864 24.0625 26.5 C28.47767363 28.53176132 32.19391737 29.58207977 37 30 C37.66 30.66 38.32 31.32 39 32 C38.625 34.625 38.625 34.625 38 37 C28.16512214 37.63450825 20.56429777 34.8746778 12.87890625 28.6953125 C5.10650109 21.68237312 -1.41497729 12.84542092 -2 2 C-1.34 1.34 -0.68 0.68 0 0 Z " fill="#C4F4F3" transform="translate(417,715)"/>
<path d="M0 0 C1.875 0.1875 1.875 0.1875 4 1 C5.63445418 4.43311576 6.53808469 7.91394479 7.3671875 11.61328125 C7.61130371 12.68940674 7.85541992 13.76553223 8.10693359 14.87426758 C8.36039551 16.00888428 8.61385742 17.14350098 8.875 18.3125 C10.88986014 27.22476198 12.98758185 36.09558216 15.3359375 44.92578125 C15.94318376 47.73697424 16.13959039 50.13839699 16 53 C14.125 53.625 14.125 53.625 12 54 C9.39792597 51.39792597 9.22416787 49.42292406 8.4140625 45.83984375 C8.12466797 44.57841553 7.83527344 43.3169873 7.53710938 42.01733398 C7.23274836 40.65746192 6.92871773 39.29751588 6.625 37.9375 C6.31376286 36.56374471 6.00191305 35.19012808 5.68945312 33.81665039 C5.22435044 31.77201125 4.75973778 29.72727925 4.29803467 27.68186951 C3.44529002 23.91235712 2.55850771 20.15459555 1.6171875 16.40625 C1.42431152 15.631604 1.23143555 14.85695801 1.03271484 14.05883789 C0.53793553 12.08856406 0.03493229 10.12036044 -0.46875 8.15234375 C-0.99435803 5.03347848 -0.86627229 3.01485555 0 0 Z " fill="#BDEDEE" transform="translate(573,523)"/>
<path d="M0 0 C1.65 0 3.3 0 5 0 C4.4170853 5.60568692 2.3604564 10.13809631 0.03515625 15.1953125 C-0.35821426 16.06517792 -0.75158478 16.93504333 -1.15687561 17.83126831 C-2.41046884 20.59890375 -3.67391443 23.36191462 -4.9375 26.125 C-5.78383598 27.99059845 -6.62954583 29.85648108 -7.47460938 31.72265625 C-9.02484847 35.13988647 -10.57675564 38.55632318 -12.13647461 41.96923828 C-12.44878525 42.65285431 -12.76109589 43.33647034 -13.08287048 44.040802 C-14.02122452 46.04534041 -15.00165021 48.02474917 -16 50 C-17.9375 49.6875 -17.9375 49.6875 -20 49 C-21.40771159 44.77686524 -19.58344665 42.25308756 -17.7734375 38.4375 C-17.4287442 37.69097168 -17.0840509 36.94444336 -16.72891235 36.17529297 C-15.62006788 33.77916785 -14.49784363 31.38959221 -13.375 29 C-12.64102243 27.42099312 -11.90793941 25.84157009 -11.17578125 24.26171875 C-9.76456755 21.21924417 -8.34869065 18.17901759 -6.92871094 15.140625 C-4.58104363 10.11102275 -2.2807453 5.06027301 0 0 Z " fill="#C2F2F2" transform="translate(838,511)"/>
<path d="M0 0 C0.625 2.375 0.625 2.375 1 5 C0.34 5.66 -0.32 6.32 -1 7 C-4.53571429 6.46428571 -4.53571429 6.46428571 -6 5 C-6.04063832 3.33382885 -6.042721 1.66611905 -6 0 C-3.50907189 -1.24546405 -2.58919267 -0.7767578 0 0 Z " fill="#BFEEEF" transform="translate(251,797)"/>
<path d="M0 0 C1.66611905 -0.042721 3.33382885 -0.04063832 5 0 C6 1 6 1 6.0625 3.5625 C6.041875 4.366875 6.02125 5.17125 6 6 C3.625 6.625 3.625 6.625 1 7 C0.34 6.34 -0.32 5.68 -1 5 C-0.625 2.375 -0.625 2.375 0 0 Z " fill="#C1F1F1" transform="translate(459,746)"/>
<path d="M0 0 C1.67542976 0.28604898 3.34385343 0.61781233 5 1 C5.625 2.875 5.625 2.875 6 5 C5.34 5.66 4.68 6.32 4 7 C1.875 6.625 1.875 6.625 0 6 C-0.38218767 4.34385343 -0.71395102 2.67542976 -1 1 C-0.67 0.67 -0.34 0.34 0 0 Z " fill="#BBEAEC" transform="translate(841,503)"/>
<path d="M0 0 C1.2065625 0.0309375 1.2065625 0.0309375 2.4375 0.0625 C3.0625 1.9375 3.0625 1.9375 3.4375 4.0625 C2.7775 4.7225 2.1175 5.3825 1.4375 6.0625 C-1.1875 5.6875 -1.1875 5.6875 -3.5625 5.0625 C-3.5625 0.08689024 -3.5625 0.08689024 0 0 Z " fill="#BFEFEF" transform="translate(573.5625,515.9375)"/>
</svg>
